<svg width="15" height="18" viewBox="0 0 15 18" fill="none" xmlns="http://www.w3.org/2000/svg">
<path d="M10.0293 2.87081C10.3543 2.47869 10.6021 2.02322 10.7585 1.53056C10.9149 1.0379 10.9768 0.517761 10.9406 0C9.94276 0.0843127 9.01648 0.575562 8.36135 1.36791C8.04762 1.74766 7.80988 2.18945 7.66221 2.6671C7.51453 3.14476 7.45991 3.64858 7.5016 4.14872C7.98834 4.15297 8.46949 4.03992 8.90781 3.81832C9.34612 3.59672 9.72985 3.27252 10.0293 2.87081ZM12.1959 9.56636C12.2016 8.87677 12.3752 8.20009 12.7001 7.60018C13.025 7.00026 13.4906 6.4969 14.0529 6.13759C13.698 5.60234 13.2289 5.16101 12.6827 4.84858C12.1365 4.53616 11.5283 4.36125 10.9062 4.33771C9.56501 4.19372 8.32696 5.15666 7.61336 5.15666C6.89977 5.15666 5.89385 4.35571 4.77617 4.37371C4.04549 4.3989 3.33352 4.6219 2.70971 5.02093C2.08589 5.41997 1.57153 5.98144 1.21679 6.65056C-0.296382 9.40438 0.829897 13.4991 2.34307 15.722C3.03087 16.8109 3.89062 18.0438 5.0255 17.9988C6.16038 17.9538 6.53007 17.2609 7.8455 17.2609C9.16092 17.2609 9.56501 17.9988 10.6827 17.9718C11.8004 17.9448 12.5913 16.8559 13.3135 15.767C13.8251 14.9764 14.2248 14.1125 14.5 13.2021C13.8186 12.898 13.2373 12.3915 12.8278 11.7454C12.4183 11.0993 12.1986 10.3417 12.1959 9.56636Z" fill="#212121"/>
</svg>
