<svg width="19" height="19" viewBox="0 0 19 19" fill="none" xmlns="http://www.w3.org/2000/svg">
<path d="M1.60123 5.03103C2.16053 3.86552 2.95077 2.88043 3.94669 2.06132C5.29623 0.946329 6.84423 0.275167 8.57987 0.0694882C10.6186 -0.172274 12.5347 0.213824 14.3064 1.27469C14.7466 1.53811 15.158 1.8376 15.5513 2.16236C15.6487 2.24174 15.6379 2.28865 15.5549 2.36804C14.7502 3.1691 13.9456 3.97017 13.1481 4.77845C13.0543 4.87227 13.0038 4.86505 12.9027 4.78927C10.5645 2.98868 7.15455 3.47582 5.41169 5.85736C5.10498 6.27593 4.856 6.72698 4.6828 7.21772C4.66837 7.26102 4.6395 7.30072 4.61785 7.34402C4.15236 6.9904 3.68327 6.63677 3.2214 6.27954C2.68014 5.86458 2.13888 5.44961 1.60123 5.03103Z" fill="#E94335"/>
<path d="M4.61785 10.7278C4.77302 11.0706 4.90292 11.4278 5.09777 11.7489C5.91688 13.0913 7.086 13.9537 8.62678 14.2604C10.016 14.5382 11.3511 14.3506 12.596 13.6542C12.6393 13.6325 12.6826 13.6109 12.7223 13.5892C12.744 13.6109 12.762 13.6361 12.7837 13.6542C13.7146 14.3759 14.6492 15.0975 15.5802 15.8192C15.1327 16.2631 14.6239 16.6203 14.0827 16.9306C12.513 17.8255 10.8135 18.1863 9.02371 18.0492C6.79372 17.876 4.87044 16.9956 3.28275 15.4079C2.58633 14.7114 2.01259 13.9248 1.59763 13.0263C1.98372 12.7304 2.36982 12.4381 2.75592 12.1423C3.37657 11.6696 3.99721 11.2005 4.61785 10.7278Z" fill="#34A853"/>
<path d="M15.584 15.8192C14.653 15.0975 13.7185 14.3759 12.7875 13.6542C12.7659 13.6361 12.7442 13.6109 12.7262 13.5892C13.0473 13.3403 13.3757 13.0985 13.6391 12.781C14.0793 12.2541 14.3716 11.6587 14.5231 10.9912C14.5412 10.9082 14.5268 10.8793 14.4438 10.8829C14.4005 10.8865 14.3608 10.8829 14.3175 10.8829C12.8452 10.8829 11.3694 10.8793 9.89718 10.8865C9.7348 10.8865 9.69872 10.8432 9.70233 10.6881C9.70954 9.64165 9.70954 8.59521 9.70233 7.54878C9.70233 7.41526 9.73841 7.37918 9.87192 7.37918C12.571 7.38279 15.2701 7.38279 17.9728 7.37918C18.0882 7.37918 18.1352 7.40805 18.164 7.53073C18.3841 8.52304 18.3697 9.51896 18.2362 10.5221C18.1279 11.3232 17.9331 12.099 17.6336 12.8495C17.1898 13.9573 16.5366 14.9243 15.6778 15.7543C15.6454 15.7795 15.6129 15.7976 15.584 15.8192Z" fill="#4285F3"/>
<path d="M4.61867 10.7296C3.99803 11.2023 3.37738 11.6714 2.75674 12.1441C2.37064 12.4363 1.98454 12.7322 1.59844 13.0281C1.29894 12.4724 1.10409 11.8843 0.945321 11.2781C0.642215 10.1053 0.595306 8.91455 0.761293 7.72017C0.891195 6.78199 1.16182 5.87989 1.59844 5.03552C2.1397 5.45049 2.67735 5.86906 3.21861 6.28403C3.68409 6.64126 4.14958 6.99488 4.61506 7.34851C4.53568 7.7346 4.42382 8.11349 4.38773 8.51041C4.32278 9.23209 4.39134 9.93573 4.59702 10.6285C4.61145 10.6574 4.61506 10.6935 4.61867 10.7296Z" fill="#FABB06"/>
</svg>
